<svg width="55" height="56" viewBox="0 0 55 56" fill="none" xmlns="http://www.w3.org/2000/svg">
<path d="M27.2842 55.4107C42.3121 55.4107 54.5684 43.1538 54.5684 28.1265C54.5684 13.0987 42.3121 0.842285 27.2842 0.842285C12.2564 0.842285 0 13.0992 0 28.1265C0 43.1538 12.2569 55.4107 27.2842 55.4107Z" fill="#1BBA85"/>
<path d="M27.2841 14.4458C40.6209 14.4458 51.4316 25.2569 51.4316 38.5933C51.4316 39.4307 51.3887 40.2576 51.306 41.0728C46.695 49.6097 37.6674 55.4101 27.2841 55.4101C16.9007 55.4101 7.8736 49.6102 3.26257 41.0734C3.17933 40.2582 3.1366 39.4307 3.1366 38.5934C3.1366 25.2564 13.9482 14.4458 27.2841 14.4458Z" fill="#3C5B5F"/>
<path d="M42.3711 19.7409C46.8615 23.3389 50.0391 28.5061 51.0704 34.4127C50.9975 34.301 50.9232 34.1543 50.8484 33.9367C50.3768 34.0913 50.3615 34.1041 49.8048 34.1967L49.7801 34.2307C49.5587 34.5463 49.7914 34.4128 49.4021 34.7416C48.9389 35.1315 48.6371 35.6636 48.1192 35.9792C48.0567 36.5306 48.165 36.6546 48.0262 37.3103C47.972 37.552 47.7013 38.2018 47.3842 38.1526C47.2838 38.1338 46.8585 37.0815 46.7581 36.7905C46.5878 36.2953 46.3948 35.93 46.2712 35.3604C46.2019 35.0567 46.1551 34.4749 46.0857 34.2705C45.7534 34.3198 45.7682 34.5309 45.4511 34.308C45.2271 34.1465 45.328 34.048 45.2035 33.8063C44.9411 33.5587 44.6704 33.3111 44.4001 33.0634C44.1909 32.9955 43.3871 33.1127 43.0464 33.0757C42.436 33.0195 42.3823 33.0569 42.0191 32.5682C41.3767 32.5997 41.4313 32.8404 40.8046 32.3018C40.395 31.9552 40.4723 31.398 39.8771 31.7136C39.8545 32.2211 40.1016 32.3334 40.3256 32.5682C40.4876 32.7479 40.689 32.8714 40.7736 33.1126C40.7815 33.1195 40.8204 33.3479 40.8283 33.3789C41.4081 33.4163 41.5469 33.1381 41.864 32.9029C42.1736 33.1934 41.8719 33.2436 42.3204 33.472C42.6758 33.6521 42.6064 33.5468 42.8377 33.8372C42.9539 34.2271 42.0422 35.2859 41.7399 35.4779C41.5081 35.6266 41.385 35.5399 41.1758 35.7122C40.8666 35.9731 41.2147 35.9357 40.6737 36.1337C40.0938 36.3444 39.5213 36.7899 38.9109 36.8273C38.7795 36.4675 38.6481 36.1032 38.5166 35.7379C38.1297 34.4935 38.1453 34.9764 37.7506 34.3325C37.565 34.0533 37.6423 33.8742 37.5188 33.6266C37.4331 33.441 37.3026 33.3603 37.186 33.1319C37.0084 32.7789 36.8001 32.2281 36.39 32.2837C36.3048 32.5619 36.7686 33.5031 36.8842 33.7319C37.0004 33.9613 37.1859 34.0603 37.2401 34.3885C37.3173 34.8399 37.2248 34.7838 37.4719 35.087C37.9903 35.7117 37.4487 35.601 38.2531 36.2134C38.8556 36.6722 38.7016 36.808 38.9565 37.4213C39.3509 37.5321 40.5259 37.0069 40.7262 37.1614C40.9659 37.5881 40.4485 38.269 40.3171 38.6406C39.8839 39.885 39.1263 39.8668 38.5464 40.8198C38.2299 41.3343 38.0827 41.4022 37.7888 42.0214C37.4561 42.7209 38.4612 44.6585 37.8588 45.4702C37.7273 45.6553 37.302 45.767 36.7689 46.3307C36.2042 46.9431 36.7841 46.8382 36.5675 47.8591C36.3978 48.0945 36.189 48.1067 35.9803 48.2746C35.903 48.5154 35.9651 48.7068 35.8331 49.0047C35.6938 49.3635 35.6711 49.1716 35.4694 49.4629C35.3227 49.6913 35.3384 49.7844 35.1681 49.9951C35.0214 50.1876 34.9436 50.2423 34.8053 50.3667C34.1323 50.986 32.6866 51.0042 32.5631 50.9175C32.2224 50.6271 32.4548 50.5527 32.37 50.1442C32.2873 49.7848 32.0969 49.4841 31.9379 49.2069L31.9217 49.1784C31.8448 49.0425 31.775 48.912 31.7361 48.788C31.4575 47.9088 31.5584 47.2413 31.0716 46.3494C30.4607 45.1974 31.4113 44.5974 31.3724 43.9471C31.3571 43.7738 31.2955 43.6685 31.2793 43.532C31.1637 42.8138 31.0947 42.1704 30.6152 41.6068C30.089 40.9944 30.1588 41.2105 30.3287 40.2019C30.5449 39.0441 30.0506 39.3409 29.3545 39.3103C29.0139 38.2584 28.3488 38.7713 27.6843 39.0814C27.2664 39.2729 27.1123 39.0258 26.6403 39.0937C25.5887 39.236 26.4162 39.6883 25.0088 38.5739C24.4211 38.1092 24.8154 38.3445 24.4679 37.7626C24.3522 37.5519 23.9962 37.2738 23.8333 37.0626C23.3002 36.3941 23.9342 35.7192 23.8412 34.9518C23.6787 33.5277 23.4468 34.7657 24.2434 33.0448C24.6613 32.1286 25.2949 32.1228 25.4579 31.7137C25.5972 31.3489 25.5041 31.0885 25.7671 30.7543C25.9989 30.4821 26.3317 30.5377 26.4631 30.1104C26.6487 29.5843 26.2928 29.5168 25.9064 29.5035C25.7444 28.9527 25.7443 29.0885 25.8674 28.5809C25.9374 28.2959 25.8753 28.1595 25.9374 27.8751C26.0919 27.1632 27.3058 27.8692 27.6539 27.5777C27.8159 27.2745 27.8395 26.9777 27.6539 26.6862C27.4599 26.3952 27.2054 26.4322 27.074 26.154C27.3679 25.9561 27.1513 26.1294 27.4063 26.0733C27.7076 26.0055 27.6687 25.9183 28.0246 25.8508C28.3421 25.7882 28.5434 25.4978 28.8521 25.3C29.2927 25.015 29.0839 24.7605 29.6175 24.6748C30.4756 24.5257 29.9188 24.5508 30.0123 23.7518C30.1433 23.7026 30.2668 23.646 30.3903 23.5909C30.6611 23.9439 30.321 23.8016 30.6454 24.0364C30.7305 23.9872 30.8309 23.9379 30.924 23.8887C30.8772 23.5043 30.7 23.5785 30.5838 23.1026C30.1584 23.1705 30.0039 23.5293 29.6638 23.3994C29.3315 23.2759 29.3158 22.7988 29.3315 22.4026C29.455 22.1057 30.0733 21.9448 30.3125 21.87C30.7 21.7401 30.6453 21.4801 31.0007 21.1267C31.4649 20.6625 31.1242 21.1331 31.3487 20.5331C31.8592 20.5139 31.6194 20.4956 31.9207 20.3411L31.9359 20.3352L31.967 20.3225C32.1452 20.2418 32.377 20.2235 32.6089 20.1433C33.4591 19.8587 33.807 20.001 34.4253 20.254C34.9048 20.4524 36.3506 20.4583 36.4588 21.0657C36.1113 21.43 35.779 21.1642 35.2759 21.1957C35.3684 21.6658 35.4069 21.6658 35.8327 21.7957C35.9026 21.5727 35.8017 21.6598 35.9178 21.5171C36.0571 21.5481 36.1964 21.5727 36.3353 21.5983C36.4751 21.1213 36.637 21.1897 37.1092 21.1336C37.0314 20.8053 36.9462 20.8983 37.124 20.6385C37.6118 20.6887 37.217 20.6454 37.4567 21.0353C37.7969 20.9915 38.1297 20.6138 38.6008 20.5646C38.8946 20.5336 38.8794 20.6453 39.2963 20.6015C39.6365 20.5646 39.6207 20.4405 39.9619 20.5833C40.085 20.3539 39.9619 20.3598 40.2632 20.3047C40.7264 20.224 41.129 20.5084 41.5771 20.571C41.2453 20.1629 40.9278 20.2426 41.3378 19.5619C41.8557 19.4566 41.9019 19.5309 42.1264 19.9213C42.2534 19.8499 42.3076 19.778 42.3706 19.7416L42.3711 19.7409ZM16.3663 53.1369C15.5619 52.7854 14.7782 52.3961 14.0167 51.9717C14.0073 51.9402 13.999 51.9057 13.9916 51.8659C13.8759 51.1782 14.1698 51.1038 13.8444 49.9583C13.6312 49.2008 13.7169 47.406 13.4914 46.4859C13.4555 46.3392 13.4111 46.2146 13.3575 46.1197C13.1488 45.7736 12.6383 45.6127 12.2293 45.3335C12.2056 45.3281 12.1904 45.3213 12.183 45.3089C11.6184 44.9127 11.0848 43.3585 10.6364 42.7773C10.4281 42.4981 10.2967 42.6216 10.2036 42.1826C10.1032 41.7804 10.2578 41.8488 10.3897 41.5137C9.70155 40.251 11.2787 40.2692 10.9544 38.7525C10.8845 38.4739 10.6841 38.0841 10.5138 37.961C10.1889 38.1032 10.3429 38.183 10.1732 38.4557C9.91077 38.307 9.64794 38.1579 9.3929 38.0102C8.59644 37.2423 9.02126 37.7991 8.79776 37.2979C8.31826 36.2455 7.86147 36.8342 7.28946 36.3139C7.03399 36.0968 6.98773 35.7562 6.56291 35.8187C5.92098 35.9054 6.27643 36.0043 5.61191 35.6941C5.04725 35.4278 4.46 35.1187 4.06523 34.7593C4.04999 34.2021 4.25132 34.177 3.90323 33.6576C3.84174 33.5612 3.77225 33.4715 3.7019 33.3858C4.78976 28.4361 7.39486 24.0559 11.0061 20.7578C11.2867 20.8558 11.6578 20.7913 11.9364 20.78C12.0364 20.5944 12.0984 20.433 12.2766 20.365C12.346 20.3404 12.4311 20.3345 12.5469 20.3404C12.5621 20.4324 12.5858 20.5259 12.6089 20.6185C12.6089 20.6255 12.6247 20.687 12.6168 20.6747C12.6247 20.6619 12.632 20.7116 12.6394 20.7298C13.1272 20.4452 12.7172 20.4388 12.9796 19.9249C12.57 19.8442 12.6242 19.8934 12.3687 19.6335C12.6168 19.3613 13.0952 19.2683 13.4512 19.2933C13.4276 19.5414 13.3119 19.535 13.4054 19.7452C13.6836 19.5719 13.877 19.1082 14.3249 19.1944C14.4101 19.2559 14.511 19.3121 14.6035 19.3677C14.3712 19.5843 14.0237 19.5971 13.7224 19.7207C13.5904 21.0646 14.1477 19.9378 13.9616 20.8603C14.2939 20.8356 14.6188 20.5939 14.7423 20.3463C14.6188 20.1854 14.4406 20.1854 14.3406 19.9933C14.4184 19.7458 14.5848 19.5582 14.8201 19.4465C14.9791 19.3711 15.1692 19.3308 15.3848 19.3308C17.8431 19.3496 16.6754 19.4608 17.4335 19.8079C17.6033 19.8818 17.9046 19.9196 18.0055 20.0678C18.1601 20.3032 18.0134 20.5256 18.2606 20.7117C18.4772 20.8726 18.5082 20.7053 18.7942 21.0651C18.7327 21.2689 18.5855 21.4796 18.2842 21.486C17.8668 21.4918 18.1139 21.2068 17.6655 21.2507C17.6739 21.671 18.0908 21.8325 17.7038 22.0614C17.3636 22.2661 17.5798 21.9875 17.3253 22.1298C17.3174 22.1362 17.2942 22.1486 17.2869 22.155C17.2716 22.1672 17.2559 22.186 17.248 22.1982C17.2022 22.2479 17.1628 22.2913 17.1249 22.3351C16.5066 22.1672 16.6228 22.242 16.2511 21.8334C16.1124 21.6789 16.0891 21.6415 15.8416 21.6601C15.687 21.666 15.4861 21.734 15.3389 21.5981C15.6407 21.2205 15.7879 21.5858 16.2284 21.3623C16.3057 21.3249 16.7926 20.9479 16.8704 20.8607C16.739 20.5633 16.8546 20.8105 16.6621 20.619C16.2289 20.1799 16.1044 20.2906 15.5181 20.2906C15.2429 20.6071 15.0371 20.9985 14.7374 21.1703C14.5562 21.2742 14.3411 21.2978 14.0566 21.1762C14.188 21.7088 14.5282 21.3002 14.5587 21.9436C14.3346 21.9004 14.2185 21.7886 13.9867 21.8693C13.4915 22.0549 13.9325 22.0362 13.9709 22.1357C13.9709 22.1421 14.2027 22.1667 13.9709 22.2533C13.7154 22.3459 13.932 22.2037 13.4378 21.9127C13.5072 21.7892 13.5771 21.6592 13.6465 21.5292C13.2448 21.6533 12.7417 21.8512 12.2706 22.08C11.7366 22.3464 11.2344 22.6501 10.9326 22.9282C10.9248 23.3929 11.0099 23.0827 11.0567 23.6346C11.7754 23.6775 11.5436 23.8935 12.2628 24.0983C12.4011 24.1363 12.5797 24.1732 12.7964 24.21C12.7964 24.557 12.4868 24.817 12.7028 25.1764C13.2054 25.5283 13.2207 24.8416 13.3447 24.4025C15.0465 24.0471 14.2264 23.547 14.666 22.6107C14.732 22.4709 14.8254 22.3218 14.9604 22.1607C15.0914 22.1671 15.6249 22.2233 15.7411 22.2474C16.1279 22.3153 15.9193 22.4083 16.3367 22.594C16.3288 22.9287 16.1591 23.3619 16.6537 23.2816C17.0327 23.2142 16.9481 22.9164 17.4113 22.842C17.6195 23.3313 17.5658 23.542 17.6584 24.1298C18.772 24.5634 18.2767 24.9159 18.0601 25.7277C18.1999 25.7956 18.3462 25.8576 18.4934 25.9192C18.486 26.1546 18.4776 26.3839 18.4702 26.6133C18.4471 26.6133 17.279 26.3588 17.2022 26.3347C17.3798 25.8266 17.7048 25.8208 17.9135 25.301C17.496 25.3748 17.5266 25.5047 17.2253 25.5978C16.955 25.6785 16.7463 25.6224 16.4603 25.6598C16.3599 25.9936 16.4524 25.3684 16.4839 25.7952C16.4992 25.9566 16.577 25.8021 16.4681 25.9749C16.0813 25.7952 16.2131 25.3743 15.4939 25.7642C15.6563 25.8384 15.8183 25.9064 15.9886 25.9749C15.9661 26.4509 15.9271 26.092 15.8266 26.4081C15.5791 27.2189 16.4991 26.7173 16.7389 26.6745C16.6768 27.1017 16.414 27.1017 16.0428 27.2189C15.6337 27.3429 15.5097 27.5102 15.1847 27.5846C15.1847 27.0766 15.1079 27.504 15.3314 27.1514C15.0065 27.1819 14.7667 27.3306 14.4576 27.461L14.4272 27.4728C14.0299 27.6348 13.9698 27.6589 13.9241 28.1665C13.5839 28.2713 13.1897 28.3899 12.9499 28.6375C12.7106 28.8665 12.4704 29.0949 12.238 29.3178C12.2154 29.3366 12.1991 29.3552 12.1848 29.3676C12.27 30.005 12.1848 30.0174 11.7974 30.2659C11.473 30.4757 11.3647 30.4697 11.0634 30.7361C10.0971 31.603 10.5613 31.1998 10.6145 32.6923C10.4137 32.6308 10.2207 32.5624 10.0351 32.4944C9.88796 31.5034 10.0888 31.8323 9.29282 31.6029C8.43433 31.3553 8.54997 31.7762 8.19463 31.8505C7.80029 31.9366 7.60685 31.4911 7.03484 31.8627C6.7183 32.0789 6.41658 32.2216 6.33931 32.605C6.2468 33.0697 6.03801 33.4094 6.0686 33.9238C6.12327 35.3175 7.39081 35.3972 7.71567 34.7474C7.93181 34.3141 7.87809 34.0789 8.58151 34.1902C8.6509 34.5618 8.54261 34.834 8.44957 35.1191C8.38807 35.286 8.21776 35.5892 8.30292 35.8191C8.80554 36.0235 8.82078 35.639 9.48584 36.0353C9.53263 36.6973 9.18454 37.4402 9.69452 37.8242C10.0883 38.1152 10.112 37.8552 10.4595 37.7937C10.8464 37.7258 10.777 37.967 11.1329 38.0231C11.3337 37.775 11.2485 37.9306 11.3805 37.6263C11.6123 37.1011 11.6739 37.3481 12.2232 37.0267C12.2768 36.9957 12.3232 36.9641 12.3778 36.9272C12.4392 37.0572 12.5092 37.1812 12.5702 37.3049C12.9725 36.8283 13.0187 37.2926 13.4829 37.4225C13.6827 37.4772 13.8245 37.4968 13.9342 37.4983C14.2714 37.5032 14.3059 37.3393 14.7662 37.5022C14.8209 37.5278 14.8902 37.546 14.9523 37.5648C14.9596 37.5648 14.9828 37.5771 14.9828 37.5899C14.9912 37.5963 15.0138 37.6146 15.0217 37.6215C15.0989 37.7076 15.1073 37.7948 15.1688 37.8873C15.4858 38.1905 15.8029 38.4943 16.1121 38.7911C16.7224 39.0328 16.7224 38.5804 17.4185 39.2548C17.7123 39.5334 17.5805 39.528 17.7429 39.8864C17.7666 39.9426 17.8129 39.9977 17.8433 40.0661C17.9054 40.2334 17.9747 40.3939 18.0447 40.5549C18.3612 40.9699 18.7943 40.7099 19.2349 41.1372C19.49 41.3848 19.297 41.3105 19.8611 41.4094C20.7348 41.5517 20.3952 41.4714 21.0598 41.973C21.3148 42.1586 21.3763 42.0533 21.616 42.2142C21.9488 42.6783 21.8636 43.18 21.5855 43.5886C20.727 44.839 21.0209 44.6347 20.982 45.6256C20.951 46.1946 20.7885 47.3711 20.2549 47.5134C18.3148 48.0589 19.4432 48.4364 18.9332 49.3958C18.7866 49.6685 18.6777 49.7364 18.5852 49.9535C18.1993 50.8568 18.4696 51.1605 17.325 50.9562C17.4339 51.1478 17.3639 51.0177 17.4722 51.191C17.8124 51.7172 17.8666 52.114 17.1705 52.243C16.5906 52.3547 16.8382 52.243 16.784 52.8868C16.5596 52.9798 16.4592 52.8868 16.3124 53.0355L16.3671 53.1374L16.3663 53.1369ZM11.2708 20.521C11.4205 20.5013 11.4199 20.4364 11.8118 20.3413C11.7808 20.2114 11.7571 20.2114 11.7267 20.1622L11.7144 20.1375C11.5653 20.2635 11.417 20.3921 11.2708 20.5215V20.521ZM31.9366 27.7003L31.9213 27.6894C31.8672 27.6525 31.8135 27.6155 31.7672 27.5723C31.427 27.2685 31.3567 26.9969 30.9787 27.0647C30.9702 27.3497 31.0097 27.3616 31.1484 27.5477C31.6742 28.2039 31.5118 27.9813 31.9212 28.2225L31.9365 28.2314C32.0335 28.287 32.1457 28.3648 32.2998 28.4765C31.7741 28.9397 32.2614 28.9895 31.9365 29.1445L31.9212 29.1519C31.8897 29.1637 31.8597 29.1765 31.8366 29.1888C31.7278 28.916 31.9676 29.0465 31.6894 28.6502C31.5349 28.4459 31.3881 28.3839 31.1484 28.2716C30.5449 27.9871 30.6227 27.7646 30.2516 27.3929C29.8337 27.4057 29.9271 27.5356 29.6333 27.6843C29.2779 27.8571 29.332 27.6538 28.9141 27.6901C28.5739 28.2913 29.0608 27.7896 28.4425 28.2848C27.7002 28.8602 28.3111 29.4607 27.1208 29.641C27.0357 29.6532 27.0046 29.641 26.92 29.6715C26.695 29.7517 26.8264 29.6837 26.695 29.8137C26.796 30.0495 26.6567 30.0117 27.0588 30.0677C27.7932 30.1662 27.8863 29.7147 28.4199 29.603C28.6823 29.5474 30.3294 29.479 30.4451 29.51C30.8006 29.9068 30.5071 30.1854 30.5071 30.5192C30.8946 30.7235 31.4429 30.7732 31.6674 30.9839C31.9224 31.2251 31.7988 31.1876 31.9224 31.231L31.9377 31.2359C31.9844 31.2492 32.0519 31.2733 32.17 31.3181C32.4792 31.423 32.4634 31.485 32.7956 31.5096C33.0973 30.5004 32.7877 30.6058 34.2414 31.0696C35.7566 31.5658 35.0762 31.1134 35.7181 31.1813C36.0356 31.2128 35.9505 31.3112 36.3911 31.2555C36.4757 31.0822 37.1018 29.5095 36.2901 29.7079C36.0504 29.7694 36.2133 29.856 35.8727 29.7694C35.5172 29.6773 35.8574 29.6089 35.4636 29.6641C35.0762 29.7203 34.613 30.0609 34.3112 28.8908C34.1955 28.4693 33.9863 28.1046 33.5073 28.7415C33.6309 28.9581 33.716 28.9769 33.8549 29.1876C33.8165 29.2491 33.6851 29.4042 33.6388 29.4539C33.3764 29.7139 33.7476 29.5902 33.3218 29.6454C33.09 29.4722 33.1367 29.2492 32.9122 28.94C32.5179 28.3635 32.7729 28.6304 32.572 28.0791C32.414 27.9403 32.1517 27.8364 31.9374 27.7001H31.9366V27.7003ZM40.1938 44.3677C39.8541 44.541 39.8073 44.9378 39.5524 45.1603C39.2742 45.4142 38.9026 45.2971 38.7948 45.7672C38.6555 46.355 39.0266 46.1758 38.6172 46.9432C38.4705 47.2278 38.4626 47.9395 38.6871 48.1508C39.3591 48.8 39.7228 47.1603 39.8774 46.6464C39.9935 46.2811 40.1018 45.8667 40.2253 45.5255C40.3489 45.1604 40.5266 44.8389 40.1938 44.3677ZM39.0808 27.0947C39.1349 27.8508 39.5829 28.1413 39.9004 28.4878C39.862 28.8472 39.7763 28.7541 39.7842 29.2553C40.1632 29.5284 40.4408 29.6949 40.9366 29.5594C41.006 28.9525 40.8126 28.983 40.6275 28.5685C40.6585 28.5188 40.7431 28.4572 40.7584 28.4449C40.8983 28.2594 40.8284 28.5188 40.8983 28.2032C40.535 28.0861 39.9473 27.7139 39.9014 27.2256C40.0791 27.0833 40.025 27.1694 40.156 27.0833C40.442 26.8972 40.2259 27.1818 40.3957 26.8662C40.249 26.5816 40.0865 26.532 39.7311 26.6742C39.5766 26.7363 39.1665 27.0272 39.0813 27.0951L39.0808 27.0947ZM35.9185 27.2931C35.6792 26.9593 35.694 26.7915 35.2303 26.7792C35.0452 26.9776 34.8286 27.2744 34.7282 27.5777C34.5737 28.036 34.682 27.72 34.6972 28.2157C34.6893 28.2339 34.6972 28.2595 34.6972 28.2777C34.6893 28.5745 34.6194 28.2216 34.6662 28.4943C35.0299 28.4195 34.7519 28.4259 35.0226 28.3392C35.2776 28.2526 36.0583 28.0172 36.2828 28.0734C36.8159 28.1969 37.2644 28.6183 37.8678 28.1969C37.8363 27.6584 37.187 27.4541 36.7386 27.2183C36.7623 26.7236 36.8931 27.1135 36.8621 26.6365C36.7076 26.6301 36.6145 26.6055 36.4678 26.6675C36.1198 26.8221 36.3133 26.8659 36.3133 26.9215C36.3285 27.1873 36.6612 26.8659 36.3059 27.1942C36.2055 27.2804 36.0425 27.2804 35.919 27.2931H35.9185ZM26.8879 23.5416C26.8731 24.4085 27.1744 24.117 27.4599 24.5448C27.329 24.91 27.3054 24.6255 27.1592 25.0025C27.0278 25.3186 27.1897 25.0341 27.1045 25.5844C27.329 25.5972 27.6613 25.5169 27.9551 25.4919C28.373 25.4544 28.3647 25.4176 28.5119 24.9902C28.2801 24.7056 28.0482 24.4206 27.8085 24.1361C27.5062 23.6772 27.8085 23.9934 27.716 23.6093C27.6466 23.473 27.584 23.3376 27.5225 23.2007C27.1203 23.3378 27.1592 23.3004 26.8879 23.5416Z" fill="#15BDB1"/>
<path d="M42.1688 22.007L41.935 21.7732L40.9711 20.8093L40.7373 20.5754C39.9767 20.8639 39.0246 22.1108 38.649 22.8975L38.7658 23.0146L39.7297 23.9785L39.8468 24.0956C40.6334 23.7195 41.8803 22.768 42.1688 22.0074V22.007Z" fill="#FBB429"/>
<path d="M43.7827 26.5898L43.5489 26.3559L42.585 25.392L42.3511 25.1582C41.5906 25.4467 40.6385 26.6936 40.2629 27.4803L40.3801 27.5974L41.344 28.5613L41.4611 28.6784C42.2478 28.3023 43.4946 27.3508 43.7831 26.5898H43.7827Z" fill="#FBB429"/>
<path d="M43.7828 26.5899L43.549 26.3566L42.5851 25.3922L42.3513 25.1589C42.1755 25.2254 41.9904 25.343 41.8033 25.4947L43.447 27.1383C43.5981 26.9517 43.7162 26.7661 43.7827 26.5904V26.5899H43.7828Z" fill="white"/>
<path d="M26.0401 8.84888L26.274 9.08271L27.2383 10.0466L27.4716 10.2804C27.4051 10.4562 27.2875 10.6417 27.1364 10.8284L25.4923 9.1846C25.6788 9.03294 25.8644 8.91528 26.0401 8.84888Z" fill="white"/>
<path d="M22.6165 30.5769L25.4446 34.5977L26.3464 33.5073L24.7461 29.2792C24.9469 29.1059 24.5694 29.4495 25.3953 28.7062C26.2213 27.9629 29.8509 24.6263 33.1382 21.9538L42.6059 35.3374L43.4693 34.474L38.2361 17.7927C40.375 16.0295 42.03 14.623 42.4759 14.1135C43.8389 12.5559 45.072 10.4786 44.0989 8.53174C42.1515 7.55803 40.0747 8.79168 38.5171 10.1542C38.0071 10.6002 36.6013 12.2552 34.8379 14.394L18.1566 9.16098L17.2932 10.0244L30.6764 19.4921C28.0044 22.78 24.6674 26.4089 23.9245 27.235C23.1807 28.061 23.5249 27.6835 23.3516 27.8843L19.1235 26.2839L18.0331 27.1857L22.0539 30.0138C21.6172 30.765 21.8659 31.0136 22.617 30.577H22.6165V30.5769Z" fill="white"/>
<path d="M22.6163 30.5793L25.4444 34.6001L25.6619 34.3372L22.9205 30.3696L22.6168 30.5794H22.6163V30.5793Z" fill="#C8CACC"/>
<path d="M18.2955 26.9692L18.0327 27.1869L22.0535 30.015L22.2633 29.7112L18.2951 26.9692H18.2955Z" fill="#C8CACC"/>
<path d="M33.1385 21.9554L42.6063 35.3391L42.939 35.0058L33.6978 21.499L33.1385 21.9554Z" fill="#C8CACC"/>
<path d="M17.6255 9.69312L17.2927 10.0264L30.676 19.4941L31.1323 18.9349L17.6249 9.69365L17.6255 9.69312Z" fill="#C8CACC"/>
<path d="M19.701 33.1993L19.7044 33.1959L19.7615 33.1408L19.8181 33.0862L19.8756 33.0305L19.9332 32.9749L19.9908 32.9193L20.0488 32.8631L20.1069 32.8069L20.1655 32.7508L20.2246 32.6942L20.2832 32.6376L20.3423 32.5804L20.4013 32.5229L20.4609 32.4653L20.5205 32.4072L20.5805 32.3492L20.641 32.2911L20.7015 32.2325L20.7621 32.1738L20.8231 32.1148L20.8842 32.0552L20.9457 31.9956L21.0072 31.9361L21.0687 31.876L21.1307 31.8154L21.1928 31.7549L21.2553 31.6938L21.3179 31.6327L21.3809 31.5712L21.4439 31.5092L21.5068 31.4472L21.1549 31.0889L21.0919 31.1504L21.0294 31.2119L20.9668 31.2729L20.9042 31.3344L20.8422 31.395L20.7807 31.4555L20.7192 31.5156L20.6577 31.5756L20.5967 31.6352L20.5356 31.6942L20.4745 31.7533L20.414 31.8123L20.3534 31.8709L20.2929 31.9296L20.2329 31.9876L20.1729 32.0457L20.1133 32.1033L20.0537 32.1604L19.9947 32.218L19.9357 32.2751L19.8766 32.3317L19.818 32.3883L19.7594 32.4444L19.7013 32.5006L19.6432 32.5562L19.5851 32.6119L19.5276 32.6675L19.4704 32.7226L19.4133 32.7782L19.3562 32.8329L19.3528 32.8363L19.7013 33.1982L19.701 33.1993ZM47.8456 32.992L47.786 33.1477L47.7264 33.3012L47.6669 33.4524L47.6073 33.601L47.5473 33.7477L47.4872 33.8919L47.4272 34.0342L47.3672 34.174L47.307 34.3118L47.2465 34.4472L47.1865 34.581L47.126 34.7124L47.0654 34.8414L47.0049 34.9684L47.0019 34.9743L47.4533 35.1954L47.4577 35.1865L47.5198 35.0561L47.5818 34.9237L47.6433 34.7893L47.7053 34.653L47.7668 34.5146L47.8283 34.3738L47.8898 34.2311L47.9509 34.0859L48.012 33.9392L48.0735 33.7896L48.134 33.6379L48.1951 33.4843L48.2556 33.3283L48.3161 33.1698L47.8465 32.9916L47.8456 32.992ZM46.3014 36.2853L46.2703 36.3365L46.2089 36.4378L46.1474 36.5373L46.0859 36.6352L46.0238 36.7307L45.9618 36.8243L45.8998 36.9164L45.8377 37.0064L45.7757 37.095L45.7137 37.1817L45.6517 37.2668L45.5891 37.3501L45.5271 37.4318L45.4645 37.5115L45.4019 37.5898L45.339 37.6666L45.2764 37.7414L45.2138 37.8147L45.1513 37.8862L45.0883 37.9565L45.0257 38.0249L44.9627 38.0919L44.8997 38.1573L44.8368 38.2212L44.8259 38.2321L45.1778 38.591L45.193 38.5757L45.2605 38.5073L45.3274 38.4374L45.3944 38.366L45.4613 38.2931L45.5278 38.2188L45.5943 38.143L45.6603 38.0652L45.7263 37.9859L45.7922 37.9047L45.8582 37.8225L45.9236 37.7383L45.9891 37.6526L46.0545 37.5655L46.1195 37.4764L46.1846 37.3853L46.2496 37.2928L46.314 37.1983L46.3791 37.1023L46.443 37.0043L46.5075 36.9049L46.5714 36.8035L46.6359 36.7001L46.6999 36.5948L46.7303 36.5432L46.2997 36.2843L46.3014 36.2853ZM43.6954 39.1356L43.6939 39.1365L43.6294 39.1754L43.5649 39.2134L43.5005 39.2498L43.436 39.2853L43.371 39.3197L43.3065 39.3527L43.2415 39.3852L43.1765 39.4162L43.1115 39.4463L43.0464 39.4754L42.981 39.5034L42.9156 39.5305L42.8501 39.5566L42.7847 39.5821L42.7187 39.6062L42.6527 39.6299L42.5868 39.6525L42.5208 39.6741L42.4543 39.6953L42.3878 39.715L42.3209 39.7342L42.2543 39.753L42.1874 39.7703L42.1205 39.787L42.053 39.8028L41.9856 39.818L41.9181 39.8323L41.8502 39.846L41.7823 39.8588L41.7144 39.8711L41.646 39.8829L41.5776 39.8938L41.5091 39.9041L41.4402 39.9139L41.4362 39.9145L41.5002 40.4131L41.5086 40.4116L41.5825 40.4013L41.6558 40.3904L41.7287 40.3786L41.802 40.3664L41.8754 40.353L41.9487 40.3393L42.0216 40.3245L42.0945 40.3087L42.1668 40.2925L42.2397 40.2752L42.3126 40.257L42.3855 40.2378L42.4584 40.2181L42.5303 40.1974L42.6026 40.1758L42.6745 40.1532L42.7463 40.1295L42.8187 40.1049L42.8905 40.0793L42.9619 40.0528L43.0338 40.0252L43.1052 39.9966L43.1766 39.9671L43.248 39.9361L43.3194 39.9041L43.3903 39.8712L43.4611 39.8372L43.532 39.8022L43.6029 39.7658L43.6738 39.7284L43.7441 39.6895L43.8144 39.6496L43.8848 39.6088L43.9547 39.5665L43.9562 39.5655L43.6938 39.1373L43.6954 39.1356ZM39.966 39.9984H39.9576L39.8852 39.9979L39.8123 39.9969L39.7394 39.996L39.6661 39.9945L39.5928 39.993L39.5194 39.9911L39.4456 39.9892L39.3717 39.9867L39.2974 39.9843L39.2231 39.9818L39.1488 39.9794L39.0746 39.9764L38.9997 39.9734L38.9244 39.9709L38.849 39.968L38.7737 39.965L38.6983 39.9616L38.623 39.9586L38.5472 39.9556L38.4714 39.9526L38.3951 39.9496L38.3188 39.9466L38.2425 39.9437L38.1657 39.9407L38.0888 39.9377L38.0115 39.9347L37.9343 39.9323L37.857 39.9298L37.7792 39.9274L37.7014 39.9249L37.6236 39.923L37.5454 39.9211L37.4671 39.9196L37.4593 39.919L37.4504 40.4217H37.4573L37.5342 40.4232L37.611 40.4251L37.6879 40.427L37.7642 40.4294L37.841 40.4319L37.9179 40.4343L37.9942 40.4368L38.0705 40.4398L38.1468 40.4428L38.2231 40.4458L38.2989 40.4487L38.3747 40.4517L38.4504 40.4547L38.5262 40.4577L38.602 40.4607L38.6778 40.4637L38.7535 40.4666L38.8293 40.4696L38.9051 40.4726L38.9805 40.4756L39.0558 40.4786L39.1316 40.4816L39.2064 40.484L39.2818 40.4865L39.3571 40.4889L39.4325 40.4908L39.5078 40.4928L39.5832 40.4947L39.658 40.4962L39.7328 40.4977L39.8076 40.4986L39.8824 40.4996L39.9573 40.5001H39.9657L39.9676 39.9975L39.966 39.9984ZM35.9274 39.9537L35.8624 39.9586L35.7806 39.9655L35.6979 39.9729L35.6162 39.9807L35.5335 39.9892L35.4508 39.9985L35.3681 40.0084L35.2854 40.0187L35.2021 40.0296L35.1189 40.0418L35.0352 40.0546L34.9516 40.0684L34.8679 40.0821L34.7842 40.0973L34.7 40.1131L34.6158 40.1293L34.5312 40.1466L34.4466 40.1648L34.362 40.184L34.2768 40.2041L34.1916 40.2253L34.106 40.247L34.0208 40.2691L33.9351 40.2928L33.8494 40.3174L33.7637 40.343L33.6776 40.3695L33.5915 40.3972L33.5049 40.4257L33.4182 40.4558L33.4069 40.4597L33.5772 40.9328L33.5841 40.9304L33.6659 40.9023L33.7471 40.8758L33.8283 40.8497L33.9095 40.8245L33.9907 40.8009L34.072 40.7772L34.1526 40.755L34.2333 40.7334L34.314 40.7127L34.3947 40.693L34.4749 40.6738L34.5552 40.6561L34.6354 40.6389L34.7152 40.6227L34.7949 40.6069L34.8751 40.5921L34.9549 40.5783L35.0346 40.5646L35.1143 40.5518L35.1936 40.54L35.2733 40.5287L35.3526 40.5178L35.4319 40.508L35.5112 40.4986L35.59 40.4898L35.6687 40.4813L35.748 40.4735L35.8263 40.4665L35.905 40.4601L35.97 40.4552L35.9306 39.9541L35.9274 39.9537ZM31.9942 41.0972L31.9273 41.1346L31.8382 41.1857L31.7491 41.2384L31.66 41.292L31.5703 41.3476L31.4812 41.4042L31.3916 41.4623L31.3025 41.5213L31.2129 41.5824L31.1232 41.6444L31.0332 41.7084L30.9431 41.7738L30.8535 41.8408L30.7634 41.9087L30.6734 41.9786L30.5833 42.05L30.4927 42.1229L30.4021 42.1972L30.3115 42.2729L30.2205 42.3502L30.1295 42.4299L30.0389 42.5106L29.9479 42.5928L29.9253 42.614L30.2679 42.9817L30.2871 42.9644L30.3747 42.8847L30.4623 42.8069L30.5495 42.7311L30.6367 42.6568L30.7234 42.5839L30.8105 42.5125L30.8967 42.4426L30.9833 42.3747L31.0694 42.3082L31.1555 42.2428L31.2417 42.1788L31.3273 42.1168L31.413 42.0563L31.4987 41.9967L31.5839 41.9391L31.669 41.8825L31.7542 41.8274L31.8393 41.7738L31.924 41.7216L32.0086 41.6705L32.0928 41.6208L32.177 41.5721L32.2439 41.5347L31.9954 41.0976L31.9942 41.0972ZM28.8546 43.7081L28.8458 43.7175L28.7532 43.8228L28.6632 43.9262L28.5731 44.0281L28.4831 44.129L28.3934 44.2285L28.3038 44.3269L28.2142 44.4239L28.1251 44.5194L28.036 44.6139L27.9474 44.7075L27.8588 44.7996L27.7703 44.8906L27.6821 44.9803L27.594 45.0688L27.5058 45.156L27.4182 45.2421L27.3306 45.3273L27.2434 45.4109L27.1563 45.4937L27.1395 45.5089L27.4817 45.8766L27.5004 45.8593L27.59 45.7747L27.6797 45.689L27.7693 45.6024L27.8589 45.5142L27.949 45.4246L28.0391 45.334L28.1291 45.2419L28.2197 45.1494L28.3103 45.0554L28.4013 44.9604L28.4919 44.864L28.5829 44.766L28.674 44.6671L28.7655 44.5672L28.8571 44.4658L28.9486 44.363L29.0407 44.259L29.1328 44.1542L29.2224 44.0517L29.2313 44.0424L28.8551 43.7091L28.8546 43.7081ZM26.0147 46.4811L25.9542 46.5289L25.8705 46.5943L25.7863 46.6588L25.7026 46.7223L25.619 46.7849L25.5357 46.8464L25.453 46.9064L25.3703 46.9654L25.2876 47.0235L25.2054 47.0806L25.1233 47.1368L25.0411 47.1919L24.9594 47.246L24.8781 47.2992L24.7969 47.3509L24.7157 47.4016L24.635 47.4518L24.5544 47.5005L24.4737 47.5483L24.394 47.5951L24.3142 47.6409L24.2345 47.6857L24.1552 47.73L24.0759 47.7728L23.9972 47.8147L23.9592 47.8344L24.1896 48.2814L24.2315 48.2598L24.3142 48.2155L24.3969 48.1707L24.4796 48.1249L24.5629 48.0777L24.6461 48.0299L24.7294 47.9812L24.813 47.931L24.8967 47.8803L24.9809 47.8286L25.0651 47.7754L25.1497 47.7218L25.2343 47.6667L25.319 47.6105L25.4041 47.5534L25.4893 47.4953L25.575 47.4363L25.6606 47.3762L25.7463 47.3147L25.8325 47.2521L25.9186 47.1886L26.0047 47.1241L26.0913 47.0587L26.1785 46.9917L26.2652 46.9238L26.3252 46.8761L26.0146 46.4808L26.0147 46.4811ZM22.6122 48.4113L22.5462 48.4329L22.4723 48.4565L22.3985 48.4791L22.3252 48.5013L22.2523 48.5225L22.1794 48.5427L22.107 48.5618L22.0346 48.5806L21.9628 48.5983L21.8914 48.615L21.82 48.6308L21.7486 48.646L21.6777 48.6603L21.6073 48.6741L21.537 48.6869L21.4667 48.6991L21.3973 48.7104L21.3279 48.7208L21.2585 48.7306L21.1896 48.7394L21.1211 48.7478L21.0527 48.7552L20.9848 48.7621L20.9169 48.768L20.849 48.7729L20.7821 48.7773L20.7152 48.7808L20.6482 48.7837L20.5817 48.7862L20.5158 48.7877L20.4503 48.7886H20.3849L20.3194 48.7881L20.255 48.7872L20.2298 48.7862L20.2116 49.2883L20.2426 49.2892L20.3129 49.2907L20.3833 49.2913H20.4542L20.5256 49.2903L20.597 49.2884L20.6684 49.2859L20.7402 49.283L20.8131 49.2785L20.8855 49.2736L20.9584 49.2681L21.0313 49.2617L21.1046 49.2548L21.1785 49.2464L21.2523 49.2376L21.3266 49.2277L21.4005 49.2174L21.4753 49.2065L21.5501 49.1943L21.6255 49.181L21.7008 49.1676L21.7766 49.1528L21.8524 49.1376L21.9281 49.1214L22.0045 49.1041L22.0813 49.0859L22.1581 49.0671L22.235 49.0474L22.3123 49.0267L22.3901 49.0051L22.4679 48.9825L22.5457 48.9594L22.6239 48.9353L22.7021 48.9101L22.7681 48.8885L22.613 48.4105L22.6122 48.4113ZM18.804 48.5673L18.7794 48.5604L18.7218 48.5436L18.6647 48.5259L18.6071 48.5077L18.55 48.4889L18.4929 48.4692L18.4363 48.4495L18.3807 48.4294L18.3245 48.4082L18.2689 48.3865L18.2138 48.3644L18.1587 48.3418L18.104 48.3186L18.0498 48.295L17.9957 48.2709L17.9421 48.2457L17.8889 48.2206L17.8357 48.195L17.7825 48.1689L17.7303 48.1424L17.6786 48.1153L17.6264 48.0872L17.5747 48.0592L17.5236 48.0302L17.4728 48.0011L17.4221 47.9716L17.3714 47.9411L17.3217 47.9106L17.2719 47.8796L17.2227 47.8481L17.1734 47.8161L17.1247 47.7836L17.076 47.7511L17.0283 47.7176L16.9805 47.6842L16.9328 47.6497L16.8856 47.6153L16.8388 47.5804L16.7925 47.5449L16.7463 47.5094L16.7004 47.4735L16.6798 47.4567L16.3632 47.8471L16.3869 47.8663L16.4361 47.9052L16.4858 47.9436L16.5356 47.9815L16.5863 48.0195L16.637 48.0569L16.6882 48.0933L16.7399 48.1298L16.7921 48.1657L16.8443 48.2006L16.897 48.2356L16.9502 48.27L17.0033 48.304L17.057 48.338L17.1111 48.371L17.1652 48.4035L17.2203 48.4354L17.2754 48.467L17.3311 48.498L17.3872 48.5285L17.4434 48.5585L17.5 48.5881L17.5571 48.6171L17.6143 48.6451L17.6718 48.6731L17.7299 48.7007L17.788 48.7273L17.8466 48.7534L17.9056 48.7789L17.9652 48.8041L18.0243 48.8287L18.0843 48.8528L18.1448 48.8765L18.2053 48.8991L18.2664 48.9217L18.3279 48.9433L18.3894 48.9645L18.4514 48.9846L18.514 49.0044L18.5766 49.0235L18.6395 49.0423L18.6642 49.0492L18.804 48.5663V48.5673ZM15.6496 46.4328L15.6289 46.4072L15.5925 46.3619L15.556 46.3167L15.5205 46.2708L15.485 46.2246L15.4501 46.1783L15.4156 46.1321L15.3812 46.0853L15.3472 46.0381L15.3137 45.9908L15.2803 45.9436L15.2478 45.8959L15.2153 45.8481L15.1833 45.7999L15.1517 45.7516L15.1202 45.7029L15.0897 45.6542L15.0592 45.6049L15.0292 45.5557L14.9997 45.5064L14.9701 45.4568L14.941 45.4071L14.9125 45.3569L14.8844 45.3072L14.8568 45.257L14.8292 45.2063L14.8022 45.1561L14.7756 45.1054L14.7491 45.0547L14.7235 45.0035L14.6979 44.9528L14.6728 44.9016L14.6482 44.8499L14.6241 44.7982L14.6004 44.7465L14.5773 44.6948L14.5542 44.6432L14.5316 44.5915L14.5094 44.5392L14.4878 44.4875L14.4666 44.4353L14.4453 44.3831L14.4281 44.3393L13.96 44.5209L13.9787 44.5687L14.0009 44.6243L14.0235 44.6799L14.0466 44.7356L14.0703 44.7907L14.094 44.8458L14.1186 44.9014L14.1437 44.9565L14.1693 45.0116L14.1949 45.0663L14.221 45.1209L14.2475 45.1756L14.2746 45.2303L14.3022 45.2844L14.3298 45.3386L14.3578 45.3922L14.3869 45.4458L14.416 45.499L14.4456 45.5526L14.4756 45.6058L14.5061 45.659L14.5371 45.7116L14.5681 45.7643L14.6001 45.8169L14.6321 45.8691L14.664 45.9208L14.697 45.973L14.7299 46.0247L14.7634 46.0764L14.7974 46.1276L14.8318 46.1783L14.8668 46.229L14.9022 46.2798L14.9377 46.33L14.9742 46.3802L15.0106 46.4299L15.0475 46.4796L15.0849 46.5289L15.1223 46.5781L15.1603 46.6268L15.1986 46.6755L15.2375 46.7242L15.2588 46.7498L15.6486 46.4328H15.6496ZM14.0301 42.9368C13.8848 42.1394 13.8613 41.3355 14.0365 40.5405L13.5457 40.4322C13.3538 41.2804 13.3803 42.1763 13.5359 43.0274L14.0301 42.9364V42.9368ZM14.513 39.1764C14.8542 38.4523 15.3617 37.7557 15.8668 37.138L15.4794 36.818C14.9517 37.4555 14.4146 38.2072 14.0611 38.957L14.513 39.1764ZM16.8552 36.0214L16.8586 36.018L16.9015 35.9727L16.9443 35.9274L16.9876 35.8821L17.0314 35.8363L17.0752 35.7905L17.119 35.7447L17.1633 35.6988L17.2081 35.6526L17.2528 35.6063L17.2976 35.5601L17.3429 35.5138L17.3887 35.467L17.4346 35.4202L17.4808 35.3734L17.5271 35.3267L17.5739 35.2794L17.6211 35.2317L17.6683 35.184L17.7155 35.1367L17.7633 35.089L17.811 35.0412L17.8597 34.993L17.9084 34.9447L17.9571 34.8964L18.0064 34.8477L18.0556 34.799L18.1053 34.7503L18.155 34.701L18.2052 34.6518L18.2554 34.6026L18.3062 34.5529L18.3569 34.5032L18.4081 34.4536L18.4592 34.4034L18.5109 34.3532L18.5626 34.303L18.6148 34.2522L18.6182 34.2493L18.2677 33.8889L18.2643 33.8923L18.2121 33.9431L18.1598 33.9938L18.1081 34.044L18.0565 34.0947L18.0053 34.1444L17.9541 34.1946L17.9034 34.2442L17.8527 34.2939L17.8025 34.3436L17.7523 34.3928L17.7021 34.4421L17.6523 34.4913L17.6031 34.54L17.5538 34.5892L17.5051 34.6379L17.4564 34.6862L17.4077 34.7349L17.36 34.7832L17.3122 34.831L17.2645 34.8792L17.2172 34.927L17.17 34.9747L17.1232 35.0225L17.0765 35.0697L17.0302 35.1169L16.9839 35.1641L16.9377 35.2113L16.8919 35.2581L16.8466 35.3049L16.8013 35.3517L16.7565 35.3985L16.7117 35.4453L16.6674 35.4915L16.6236 35.5374L16.5793 35.5836L16.5355 35.6299L16.4922 35.6757L16.4888 35.6796L16.855 36.0238V36.0214H16.8552Z" fill="white"/>
</svg>
