<svg width="13" height="13" viewBox="0 0 13 13" fill="none" xmlns="http://www.w3.org/2000/svg">
<path d="M10.1113 5.99274L4.32613 0.207681C4.19233 0.0737718 4.01371 0 3.82326 0C3.6328 0 3.45419 0.0737718 3.32038 0.207681L2.89435 0.633613C2.61712 0.911155 2.61712 1.36224 2.89435 1.63936L7.75229 6.4973L2.88896 11.3606C2.75515 11.4945 2.68127 11.6731 2.68127 11.8634C2.68127 12.054 2.75515 12.2325 2.88896 12.3665L3.31499 12.7923C3.4489 12.9262 3.62741 13 3.81787 13C4.00832 13 4.18694 12.9262 4.32074 12.7923L10.1113 7.00198C10.2454 6.86764 10.3191 6.68829 10.3187 6.49762C10.3191 6.30622 10.2454 6.12697 10.1113 5.99274Z" fill="#398EDE"/>
</svg>
