<svg width="8" height="8" viewBox="0 0 8 8" fill="none" xmlns="http://www.w3.org/2000/svg">
<path d="M7.16262 5.94826C7.02413 5.84524 6.82838 5.87401 6.72537 6.01246C6.66871 6.08862 6.60809 6.16332 6.54517 6.2345C6.43087 6.36379 6.44301 6.56129 6.57231 6.67561C6.63178 6.72817 6.7056 6.75398 6.77917 6.75398C6.8656 6.75398 6.95167 6.71831 7.01341 6.64845C7.08793 6.56417 7.15973 6.4757 7.22682 6.3855C7.32984 6.24704 7.3011 6.05126 7.16262 5.94826Z" fill="#6B6B6B"/>
<path d="M7.68522 4.48256C7.51669 4.44585 7.35012 4.55281 7.31341 4.72143C7.29321 4.8142 7.2688 4.90713 7.24082 4.9977C7.18987 5.1626 7.28224 5.33757 7.44713 5.38852C7.47786 5.39801 7.50893 5.40252 7.53949 5.40252C7.67293 5.40252 7.79649 5.31637 7.83796 5.18218C7.87118 5.07471 7.90014 4.96441 7.92411 4.85437C7.96082 4.68574 7.85386 4.51927 7.68522 4.48256Z" fill="#6B6B6B"/>
<path d="M5.65845 6.94888C5.57548 6.99519 5.48957 7.03847 5.40314 7.07752C5.24584 7.14855 5.17592 7.33364 5.24695 7.49094C5.29914 7.6065 5.41287 7.67489 5.53193 7.67489C5.57493 7.67489 5.61864 7.66597 5.66037 7.64713C5.76292 7.60081 5.86476 7.54949 5.96314 7.49456C6.11384 7.41044 6.16779 7.22006 6.08364 7.06938C5.99953 6.91871 5.80915 6.86475 5.65845 6.94888Z" fill="#6B6B6B"/>
<path d="M3.68752 1.5V3.87056L2.5416 5.01647C2.41957 5.13852 2.41957 5.33638 2.5416 5.45841C2.60263 5.51944 2.68258 5.54994 2.76258 5.54994C2.84255 5.54994 2.92253 5.51942 2.98357 5.45841L4.221 4.22097C4.2796 4.16237 4.31252 4.08288 4.31252 4V1.5C4.31252 1.32741 4.17261 1.1875 4.00002 1.1875C3.82742 1.1875 3.68752 1.32741 3.68752 1.5Z" fill="#6B6B6B"/>
<path d="M7.6875 0.671875C7.51491 0.671875 7.375 0.811781 7.375 0.984375V1.85213C6.64762 0.711375 5.37736 0 4 0C2.93156 0 1.92708 0.416078 1.17156 1.17156C0.416078 1.92708 0 2.93156 0 4C0 5.06844 0.416078 6.07292 1.17156 6.82844C1.92708 7.58392 2.93156 8 4 8C4.00264 8 4.00519 7.99967 4.00781 7.99961C4.01044 7.99967 4.01298 8 4.01562 8C4.12825 8 4.24198 7.99525 4.3537 7.98591C4.52569 7.9715 4.65344 7.82041 4.63905 7.64842C4.62462 7.47644 4.47373 7.34863 4.30155 7.36309C4.20711 7.37098 4.11092 7.375 4.01562 7.375C4.01298 7.375 4.01044 7.37533 4.00781 7.37539C4.00519 7.37533 4.00264 7.375 4 7.375C2.13902 7.375 0.625 5.86098 0.625 4C0.625 2.13902 2.13902 0.625 4 0.625C5.19934 0.625 6.30245 1.26427 6.90525 2.28125H6.04598C5.87339 2.28125 5.73348 2.42116 5.73348 2.59375C5.73348 2.76634 5.87339 2.90625 6.04598 2.90625H7C7.19031 2.90625 7.36836 2.85277 7.51995 2.76011C7.5297 2.75455 7.53908 2.74856 7.54802 2.74211C7.81998 2.56319 8 2.25542 8 1.90625V0.984375C8 0.811781 7.86009 0.671875 7.6875 0.671875Z" fill="#6B6B6B"/>
</svg>
