<svg width="14" height="14" viewBox="0 0 14 14" fill="none" xmlns="http://www.w3.org/2000/svg">
<g clip-path="url(#clip0)">
<path d="M13.8408 9.99618C13.7288 9.71568 13.4107 9.57905 13.1302 9.69102C12.8497 9.80299 12.7131 10.1211 12.8251 10.4016C12.9674 10.7583 12.9208 11.1655 12.7002 11.491C12.4795 11.8166 12.1262 12.0034 11.7309 12.0034H2.27147C1.84023 12.0034 1.45728 11.7784 1.24703 11.4014C1.03646 11.0238 1.04635 10.5789 1.2735 10.2111L6.00321 2.55336C6.21857 2.20467 6.59162 1.9965 7.00118 1.9965C7.41073 1.9965 7.78376 2.20467 7.99914 2.55336L11.4972 8.21692C11.6559 8.47387 11.9928 8.55357 12.2497 8.39479C12.5067 8.23611 12.5863 7.89915 12.4276 7.6422L8.92957 1.97865C8.51351 1.305 7.79262 0.902832 7.00115 0.902832C6.20968 0.902832 5.48879 1.30503 5.07273 1.97865L0.343017 9.63639C-0.0954682 10.3464 -0.114554 11.2054 0.291911 11.9342C0.698049 12.6623 1.43805 13.097 2.27147 13.097H11.7309C12.4948 13.097 13.1781 12.7352 13.6056 12.1044C14.0298 11.4783 14.1178 10.6901 13.8408 9.99618Z" fill="#FF3D00"/>
<path d="M7.00143 10.9369C7.30345 10.9369 7.54826 10.6921 7.54826 10.3901C7.54826 10.0881 7.30345 9.84326 7.00143 9.84326H7.00116C6.69914 9.84326 6.45447 10.0881 6.45447 10.3901C6.45447 10.6921 6.69942 10.9369 7.00143 10.9369Z" fill="#FF3D00"/>
<path d="M7.54794 8.4764V4.45722C7.54794 4.15521 7.30313 3.9104 7.00111 3.9104C6.6991 3.9104 6.45428 4.15521 6.45428 4.45722V8.4764C6.45428 8.77841 6.6991 9.02322 7.00111 9.02322C7.30313 9.02322 7.54794 8.77841 7.54794 8.4764Z" fill="#FF3D00"/>
</g>
<defs>
<clipPath id="clip0">
<rect width="14" height="14" fill="white"/>
</clipPath>
</defs>
</svg>
