<svg width="30" height="29" viewBox="0 0 30 29" fill="none" xmlns="http://www.w3.org/2000/svg">
<g filter="url(#filter0_d_3_535)">
<path d="M15.3 12.22C15.8336 11.7581 16.2616 11.1869 16.5549 10.545C16.8482 9.90316 17 9.20571 17 8.5C17 7.17392 16.4732 5.90215 15.5355 4.96447C14.5979 4.02678 13.3261 3.5 12 3.5C10.6739 3.5 9.40215 4.02678 8.46447 4.96447C7.52678 5.90215 7 7.17392 7 8.5C6.99999 9.20571 7.1518 9.90316 7.44513 10.545C7.73845 11.1869 8.16642 11.7581 8.7 12.22C7.30014 12.8539 6.11247 13.8775 5.27898 15.1685C4.4455 16.4596 4.00147 17.9633 4 19.5C4 19.7652 4.10536 20.0196 4.29289 20.2071C4.48043 20.3946 4.73478 20.5 5 20.5C5.26522 20.5 5.51957 20.3946 5.70711 20.2071C5.89464 20.0196 6 19.7652 6 19.5C6 17.9087 6.63214 16.3826 7.75736 15.2574C8.88258 14.1321 10.4087 13.5 12 13.5C13.5913 13.5 15.1174 14.1321 16.2426 15.2574C17.3679 16.3826 18 17.9087 18 19.5C18 19.7652 18.1054 20.0196 18.2929 20.2071C18.4804 20.3946 18.7348 20.5 19 20.5C19.2652 20.5 19.5196 20.3946 19.7071 20.2071C19.8946 20.0196 20 19.7652 20 19.5C19.9985 17.9633 19.5545 16.4596 18.721 15.1685C17.8875 13.8775 16.6999 12.8539 15.3 12.22ZM12 11.5C11.4067 11.5 10.8266 11.3241 10.3333 10.9944C9.83994 10.6648 9.45542 10.1962 9.22836 9.64805C9.0013 9.09987 8.94189 8.49667 9.05764 7.91473C9.1734 7.33279 9.45912 6.79824 9.87868 6.37868C10.2982 5.95912 10.8328 5.6734 11.4147 5.55764C11.9967 5.44189 12.5999 5.5013 13.1481 5.72836C13.6962 5.95542 14.1648 6.33994 14.4944 6.83329C14.8241 7.32664 15 7.90666 15 8.5C15 9.29565 14.6839 10.0587 14.1213 10.6213C13.5587 11.1839 12.7956 11.5 12 11.5ZM21.74 11.82C22.38 11.0993 22.798 10.2091 22.9438 9.25634C23.0896 8.30362 22.9569 7.32907 22.5618 6.45C22.1666 5.57093 21.5258 4.8248 20.7165 4.30142C19.9071 3.77805 18.9638 3.49974 18 3.5C17.7348 3.5 17.4804 3.60536 17.2929 3.79289C17.1054 3.98043 17 4.23478 17 4.5C17 4.76522 17.1054 5.01957 17.2929 5.20711C17.4804 5.39464 17.7348 5.5 18 5.5C18.7956 5.5 19.5587 5.81607 20.1213 6.37868C20.6839 6.94129 21 7.70435 21 8.5C20.9986 9.02524 20.8593 9.5409 20.5961 9.99542C20.3328 10.4499 19.9549 10.8274 19.5 11.09C19.3517 11.1755 19.2279 11.2977 19.1404 11.4447C19.0528 11.5918 19.0045 11.7589 19 11.93C18.9958 12.0998 19.0349 12.2678 19.1137 12.4183C19.1924 12.5687 19.3081 12.6967 19.45 12.79L19.84 13.05L19.97 13.12C21.1754 13.6917 22.1923 14.596 22.901 15.7263C23.6096 16.8566 23.9805 18.1659 23.97 19.5C23.97 19.7652 24.0754 20.0196 24.2629 20.2071C24.4504 20.3946 24.7048 20.5 24.97 20.5C25.2352 20.5 25.4896 20.3946 25.6771 20.2071C25.8646 20.0196 25.97 19.7652 25.97 19.5C25.9782 17.9654 25.5938 16.4543 24.8535 15.1101C24.1131 13.7659 23.0413 12.6333 21.74 11.82Z" fill="black"/>
</g>
<defs>
<filter id="filter0_d_3_535" x="-1" y="0" width="32" height="32" filterUnits="userSpaceOnUse" color-interpolation-filters="sRGB">
<feFlood flood-opacity="0" result="BackgroundImageFix"/>
<feColorMatrix in="SourceAlpha" type="matrix" values="0 0 0 0 0 0 0 0 0 0 0 0 0 0 0 0 0 0 127 0" result="hardAlpha"/>
<feOffset dy="4"/>
<feGaussianBlur stdDeviation="2"/>
<feComposite in2="hardAlpha" operator="out"/>
<feColorMatrix type="matrix" values="0 0 0 0 0 0 0 0 0 0 0 0 0 0 0 0 0 0 0.25 0"/>
<feBlend mode="normal" in2="BackgroundImageFix" result="effect1_dropShadow_3_535"/>
<feBlend mode="normal" in="SourceGraphic" in2="effect1_dropShadow_3_535" result="shape"/>
</filter>
</defs>
</svg>
